<svg width="22.000000" height="22.000002" viewBox="0 0 22 22" fill="none" xmlns="http://www.w3.org/2000/svg" xmlns:xlink="http://www.w3.org/1999/xlink">
	<desc>
			Created with Pixso.
	</desc>
	<defs/>
	<path id="path" d="M21.79 8.38L21.7 7.95L18.07 7.32L20.18 4.47L19.94 4.2L16.84 5.69L17.23 1.74L16.91 1.56L15.02 4.75L12.9 0L12.53 0L13.04 4.59L7.7 0.32L7.25 0.46L11.36 5.61L3.23 2.91L2.86 3.32L10.12 7.45L0.11 8.28L0 8.9L10.4 10.04L1.72 17.22L2.09 17.72L12.42 12.1L10.38 22L11 22L14.96 12.68L17.37 19.97L17.8 19.64L16.81 12.23L20.57 16.5L20.82 16.11L17.94 10.82L21.96 12.31L22 11.85L18.39 9.2L21.79 8.38Z" fill="#FFBC0D" fill-opacity="1.000000" fill-rule="nonzero"/>
</svg>
