<svg width="800.000061" height="566.100342" viewBox="0 0 800 566.1" fill="none" xmlns="http://www.w3.org/2000/svg" xmlns:xlink="http://www.w3.org/1999/xlink">
	<desc>
			Created with Pixso.
	</desc>
	<defs/>
	<path id="Многоугольник 1" d="M554.83 274.75L291.72 142.88C281.74 137.88 270 145.13 270 156.29L270 416.03C270 427.11 281.59 434.36 291.55 429.52L554.66 301.65C565.84 296.22 565.94 280.32 554.83 274.75Z" fill="#FFFFFF" fill-opacity="1.000000" fill-rule="evenodd"/>
	<path id="path" d="M633.84 0L166.15 0C74.38 0 0 74.38 0 166.15L0 399.95C0 491.71 74.38 566.09 166.15 566.09L633.84 566.09C725.61 566.09 800 491.71 800 399.95L800 166.15C800 74.38 725.61 0 633.84 0ZM521.48 294.42L302.72 398.76C296.89 401.54 290.16 397.29 290.16 390.83L290.16 175.64C290.16 169.09 297.07 164.84 302.91 167.8L521.67 278.66C528.17 281.96 528.06 291.28 521.48 294.42Z" fill="#F61C0D" fill-opacity="1.000000" fill-rule="nonzero"/>
</svg>
