<svg width="159.804260" height="161.235458" viewBox="0 0 159.804 161.235" fill="none" xmlns="http://www.w3.org/2000/svg" xmlns:xlink="http://www.w3.org/1999/xlink">
	<desc>
			Created with Pixso.
	</desc>
	<defs/>
	<path id="path" d="M30.43 1.86C17.9 6.26 7.1 16.93 2.56 29.06C-0.1 36.13 -0.24 38.53 0.16 83.2L0.56 130L4.56 137.06C9.63 146.53 19.5 155.2 28.83 158.66C36.03 161.33 38.3 161.46 82.43 161.06L128.56 160.66L135.63 156.66C145.1 151.6 153.76 141.73 157.23 132.39C159.9 125.2 160.03 122.93 159.63 78.13L159.23 31.33L155.23 24.26C150.16 14.93 140.3 6.13 131.1 2.8C124.3 0.13 120.96 0 79.5 0C46.83 0.13 34.03 0.53 30.43 1.86ZM127.9 21.33C130.83 22.8 134.83 26.53 136.83 29.6L140.56 35.06L140.96 79.46C141.36 122.13 141.23 124.13 138.56 129.33C135.9 134.53 128.96 140.13 123.1 141.86C120.43 142.66 120.03 142 118.56 133.73C110.43 87.06 75.5 50.66 30.3 41.86C23.76 40.66 18.56 39.06 18.56 38.4C18.56 37.73 19.76 34.93 21.23 32C23.9 26.93 28.83 22.4 34.7 20.13C36.43 19.46 56.96 18.79 80.3 18.79C120.3 18.66 122.96 18.79 127.9 21.33ZM30.56 60.8C42.43 63.6 58.96 71.86 68.96 80.13C73.5 83.86 77.23 87.33 77.23 87.86C77.23 88.4 79.76 92 82.83 96C89.63 105.06 96.56 119.86 99.23 130.93C102.16 143.6 102.96 142.8 88.3 142.39L75.5 142L73.63 134.13C70.16 118.8 61.9 107.6 42.43 91.6C39.9 89.6 33.5 86.53 28.3 84.93L18.56 82.13L18.56 70.4C18.56 57.2 17.76 57.73 30.56 60.8ZM30.16 106.66C33.23 108 38.43 111.6 41.76 114.66C48.16 120.53 55.9 134.26 55.9 139.6C55.9 142.53 55.5 142.66 46.56 142.66C34.83 142.66 28.03 139.46 22.96 131.73C19.76 126.93 19.23 124.66 18.7 114.26L18.3 102.4L21.36 103.33C23.1 103.86 27.1 105.33 30.16 106.66Z" fill="#FFFFFF" fill-opacity="1.000000" fill-rule="nonzero"/>
	<path id="path" d="M2.56 29.06C-0.1 36.13 -0.24 38.53 0.16 83.2L0.56 130L4.56 137.06C9.63 146.53 19.5 155.2 28.83 158.66C36.03 161.33 38.3 161.46 82.43 161.06L128.56 160.66L135.63 156.66C145.1 151.6 153.76 141.73 157.23 132.39C159.9 125.2 160.03 122.93 159.63 78.13L159.23 31.33L155.23 24.26C150.16 14.93 140.3 6.13 131.1 2.8C124.3 0.13 120.96 0 79.5 0C46.83 0.13 34.03 0.53 30.43 1.86C17.9 6.26 7.1 16.93 2.56 29.06ZM136.83 29.6L140.56 35.06L140.96 79.46C141.36 122.13 141.23 124.13 138.56 129.33C135.9 134.53 128.96 140.13 123.1 141.86C120.43 142.66 120.03 142 118.56 133.73C110.43 87.06 75.5 50.66 30.3 41.86C23.76 40.66 18.56 39.06 18.56 38.4C18.56 37.73 19.76 34.93 21.23 32C23.9 26.93 28.83 22.4 34.7 20.13C36.43 19.46 56.96 18.79 80.3 18.79C120.3 18.66 122.96 18.79 127.9 21.33C130.83 22.8 134.83 26.53 136.83 29.6ZM68.96 80.13C73.5 83.86 77.23 87.33 77.23 87.86C77.23 88.4 79.76 92 82.83 96C89.63 105.06 96.56 119.86 99.23 130.93C102.16 143.6 102.96 142.8 88.3 142.39L75.5 142L73.63 134.13C70.16 118.8 61.9 107.6 42.43 91.6C39.9 89.6 33.5 86.53 28.3 84.93L18.56 82.13L18.56 70.4C18.56 57.2 17.76 57.73 30.56 60.8C42.43 63.6 58.96 71.86 68.96 80.13ZM41.76 114.66C48.16 120.53 55.9 134.26 55.9 139.6C55.9 142.53 55.5 142.66 46.56 142.66C34.83 142.66 28.03 139.46 22.96 131.73C19.76 126.93 19.23 124.66 18.7 114.26L18.3 102.4L21.36 103.33C23.1 103.86 27.1 105.33 30.16 106.66C33.23 108 38.43 111.6 41.76 114.66Z" stroke="#000000" stroke-opacity="0" stroke-width="0.133333"/>
</svg>
