<svg width="800.000061" height="566.100342" viewBox="0 0 800 566.1" fill="none" xmlns="http://www.w3.org/2000/svg" xmlns:xlink="http://www.w3.org/1999/xlink">
	<desc>
			Created with Pixso.
	</desc>
	<defs/>
	<path id="path" d="M633.84 0L166.15 0C74.38 0 0 74.38 0 166.15L0 399.95C0 491.71 74.38 566.09 166.15 566.09L633.84 566.09C725.61 566.09 800 491.71 800 399.95L800 166.15C800 74.38 725.61 0 633.84 0ZM521.48 294.42L302.72 398.76C296.89 401.54 290.16 397.29 290.16 390.83L290.16 175.64C290.16 169.09 297.07 164.84 302.91 167.8L521.67 278.66C528.17 281.96 528.06 291.28 521.48 294.42Z" fill="#F61C0D" fill-opacity="1.000000" fill-rule="nonzero"/>
	<path id="Многоугольник 1" d="M521.15 272.39L307.65 166.71C297.68 161.78 286 169.03 286 180.16L286 386.35C286 397.35 297.44 404.61 307.38 399.92L520.89 299.4C532.25 294.06 532.4 277.96 521.15 272.39Z" fill="#FFFFFF" fill-opacity="1.000000" fill-rule="evenodd"/>
</svg>
